<svg width="20" height="20" viewBox="0 0 20 20" fill="none" xmlns="http://www.w3.org/2000/svg">
<path d="M18 7.08535V10.5C18 10.7761 17.7761 11 17.5 11C17.2239 11 17 10.7761 17 10.5V7H15V9.5C15 9.77614 14.7761 10 14.5 10C14.2239 10 14 9.77614 14 9.5V7H12V10.5C12 10.7761 11.7761 11 11.5 11C11.2239 11 11 10.7761 11 10.5V7H9V9.5C9 9.77614 8.77614 10 8.5 10C8.22386 10 8 9.77614 8 9.5V7H6V10.5C6 10.7761 5.77614 11 5.5 11C5.22386 11 5 10.7761 5 10.5V7H3V9.5C3 9.77614 2.77614 10 2.5 10C2.22386 10 2 9.77614 2 9.5V7.08535C1.4174 7.29127 1 7.84689 1 8.5V11.5C1 12.3284 1.67157 13 2.5 13H17.5C18.3284 13 19 12.3284 19 11.5V8.5C19 7.84689 18.5826 7.29127 18 7.08535ZM0 8.5C0 7.11929 1.11929 6 2.5 6H17.5C18.8807 6 20 7.11929 20 8.5V11.5C20 12.8807 18.8807 14 17.5 14H2.5C1.11929 14 0 12.8807 0 11.5V8.5Z" fill="#F49600"/>
</svg>
